<?xml version="1.0" encoding="UTF-8" standalone="no"?>
<svg
   xmlns:dc="http://purl.org/dc/elements/1.1/"
   xmlns:cc="http://creativecommons.org/ns#"
   xmlns:rdf="http://www.w3.org/1999/02/22-rdf-syntax-ns#"
   xmlns:svg="http://www.w3.org/2000/svg"
   xmlns="http://www.w3.org/2000/svg"
   xmlns:sodipodi="http://sodipodi.sourceforge.net/DTD/sodipodi-0.dtd"
   xmlns:inkscape="http://www.inkscape.org/namespaces/inkscape"
   id="svg8"
   version="1.1"
   viewBox="0 0 52.916667 52.916667"
   height="200"
   width="200"
   sodipodi:docname="placeholderLogo.svg"
   inkscape:version="0.92.4 (5da689c313, 2019-01-14)">
  <sodipodi:namedview
     pagecolor="#ffffff"
     bordercolor="#666666"
     borderopacity="1"
     objecttolerance="10"
     gridtolerance="10"
     guidetolerance="10"
     inkscape:pageopacity="0"
     inkscape:pageshadow="2"
     inkscape:window-width="1680"
     inkscape:window-height="1021"
     id="namedview31"
     showgrid="false"
     inkscape:zoom="3.57"
     inkscape:cx="7.0028016"
     inkscape:cy="100.28011"
     inkscape:window-x="1920"
     inkscape:window-y="0"
     inkscape:window-maximized="1"
     inkscape:current-layer="text852" />
  <defs
     id="defs2">
    <marker
       orient="auto"
       refY="0"
       refX="0"
       id="marker1195"
       style="overflow:visible">
      <path
         id="path1193"
         d="M 0,0 5,-5 -12.5,0 5,5 Z"
         style="fill:#000000;fill-opacity:1;fill-rule:evenodd;stroke:none;stroke-width:1.00000003pt;stroke-opacity:1"
         transform="matrix(0.8,0,0,0.8,10,0)" />
    </marker>
    <marker
       style="overflow:visible"
       id="marker1119"
       refX="0"
       refY="0"
       orient="auto">
      <path
         transform="matrix(0.8,0,0,0.8,10,0)"
         style="fill:#000000;fill-opacity:1;fill-rule:evenodd;stroke:none;stroke-width:1.00000003pt;stroke-opacity:1"
         d="M 0,0 5,-5 -12.5,0 5,5 Z"
         id="path1117" />
    </marker>
    <marker
       style="overflow:visible"
       id="marker1097"
       refX="0"
       refY="0"
       orient="auto">
      <path
         transform="matrix(0.8,0,0,0.8,10,0)"
         style="fill:#000000;fill-opacity:1;fill-rule:evenodd;stroke:none;stroke-width:1.00000003pt;stroke-opacity:1"
         d="M 0,0 5,-5 -12.5,0 5,5 Z"
         id="path1095" />
    </marker>
    <marker
       style="overflow:visible"
       id="Arrow1Lstart"
       refX="0"
       refY="0"
       orient="auto">
      <path
         transform="matrix(0.8,0,0,0.8,10,0)"
         style="fill:#000000;fill-opacity:1;fill-rule:evenodd;stroke:none;stroke-width:1.00000003pt;stroke-opacity:1"
         d="M 0,0 5,-5 -12.5,0 5,5 Z"
         id="path819" />
    </marker>
  </defs>
  <metadata
     id="metadata5">
    <rdf:RDF>
      <cc:Work
         rdf:about="">
        <dc:format>image/svg+xml</dc:format>
        <dc:type
           rdf:resource="http://purl.org/dc/dcmitype/StillImage" />
        <dc:title />
      </cc:Work>
    </rdf:RDF>
  </metadata>
  <g
     transform="translate(0,-244.08333)"
     id="layer1">
    <path
       id="path1983"
       d="m 19.454203,244.08407 a 0.28551313,0.28551313 0 0 0 -0.282934,0.36543 l 1.041415,3.88746 a 0.28546971,0.28546971 0 0 0 0.354851,0.20489 0.28546971,0.28546971 0 0 0 0.196796,-0.35262 l -1.041693,-3.88747 a 0.28551313,0.28551313 0 0 0 -0.268435,-0.21769 z m 14.001946,2.8e-4 a 0.28546971,0.28546971 0 0 0 -0.261743,0.2152 l -1.041972,3.88857 a 0.28551313,0.28551313 0 1 0 0.551371,0.14774 l 1.041973,-3.88857 a 0.28546971,0.28546971 0 0 0 -0.204607,-0.35458 0.28546971,0.28546971 0 0 0 -0.08506,-0.009 z m -20.554831,2.70667 a 0.28551313,0.28551313 0 0 0 -0.235265,0.43373 l 2.012305,3.48522 a 0.28546971,0.28546971 0 0 0 0.395548,0.10619 0.28546971,0.28546971 0 0 0 0.09896,-0.39164 l -2.012306,-3.48523 a 0.28551313,0.28551313 0 0 0 -0.259239,-0.14828 z m 27.107715,0 a 0.28546971,0.28546971 0 0 0 -0.251989,0.14634 l -2.01286,3.48633 a 0.28551313,0.28551313 0 1 0 0.494497,0.28545 l 2.012872,-3.48634 a 0.28546971,0.28546971 0 0 0 -0.106195,-0.39583 0.28546971,0.28546971 0 0 0 -0.136314,-0.0359 z m -18.598277,4.59464 a 0.28551313,0.28551313 0 0 0 -0.28321,0.36545 l 1.600311,5.97253 a 0.28897099,0.28897099 0 0 1 0.05575,-0.0878 c 0.129293,-0.13779 0.274719,-0.2408 0.426489,-0.31806 l -1.531179,-5.7144 a 0.28551313,0.28551313 0 0 0 -0.26816,-0.21771 z m 10.116997,0.001 a 0.28546971,0.28546971 0 0 0 -0.289902,0.21462 l -1.521427,5.67789 c 0.0022,4.3e-4 0.0066,0.002 0.0077,0.002 a 0.28897099,0.28897099 0 0 1 0.0077,0.002 0.28897099,0.28897099 0 0 1 0.0044,0.001 0.28897099,0.28897099 0 0 1 0.09678,0.0496 c 0.14667,0.0513 0.280487,0.1213 0.404472,0.20293 l 1.550966,-5.78827 a 0.28546971,0.28546971 0 0 0 -0.20488,-0.35346 0.28546971,0.28546971 0 0 0 -0.0566,-0.009 z m 4.70086,1.95153 a 0.28546971,0.28546971 0 0 0 -0.251157,0.14523 l -3.046195,5.2762 c 0.198256,0.0302 0.379762,0.0952 0.537161,0.18788 a 0.28897099,0.28897099 0 0 1 0.0011,5.7e-4 c 0.0044,0.002 0.0055,0.003 0.0088,0.005 l 2.993229,-5.1845 a 0.28546971,0.28546971 0 0 0 -0.106524,-0.39443 0.28546971,0.28546971 0 0 0 -0.136586,-0.0362 z m -19.5491,0.001 a 0.28551313,0.28551313 0 0 0 -0.233873,0.43123 l 3.011628,5.21628 c 0.06485,-0.0617 0.132312,-0.11885 0.204324,-0.16614 a 0.28897099,0.28897099 0 0 1 0.0014,-5.7e-4 c 0.01548,-0.0101 0.02629,-0.016 0.03289,-0.0206 a 0.28897099,0.28897099 0 0 1 0.0053,-0.004 c 5.4e-5,-9e-5 4.29e-4,10e-5 5.7e-4,0 1.44e-4,0 2.86e-4,-8e-5 5.72e-4,-2.9e-4 a 0.28897099,0.28897099 0 0 1 0.107597,-0.0384 c 0.04525,-0.0233 0.09103,-0.044 0.137146,-0.063 l -3.006889,-5.2079 A 0.28551313,0.28551313 0 0 0 16.679546,253.34 Z m 9.786678,1.12867 a 0.28546971,0.28546971 0 0 0 -0.293252,0.30217 v 2.17648 c 0.143867,0.0288 0.282742,0.0716 0.412553,0.13214 a 0.28897099,0.28897099 0 0 1 2.84e-4,5.7e-4 c 0.05025,0.0238 0.09689,0.0517 0.145236,0.0775 a 0.28897099,0.28897099 0 0 1 0.01204,-0.0159 v -2.37079 a 0.28546971,0.28546971 0 0 0 -0.276809,-0.30216 z m 23.467502,2.24032 a 0.28546971,0.28546971 0 0 0 -0.155823,0.0402 l -3.486336,2.01285 a 0.28551313,0.28551313 0 1 0 0.285436,0.49452 l 3.486347,-2.01286 a 0.28546971,0.28546971 0 0 0 0.106195,-0.39555 0.28546971,0.28546971 0 0 0 -0.235819,-0.13911 z m -46.957032,3e-4 a 0.28551313,0.28551313 0 0 0 -0.1215345,0.53548 l 3.4852259,2.01229 a 0.28546971,0.28546971 0 0 0 0.3955467,-0.10597 0.28546971,0.28546971 0 0 0 -0.1101059,-0.38858 l -3.4852258,-2.01231 a 0.28551313,0.28551313 0 0 0 -0.1639064,-0.0409 z m 12.296551,2.38526 a 0.28546971,0.28546971 0 0 0 -0.173941,0.49897 l 1.638779,1.63877 c 0.161371,-0.12203 0.337651,-0.21433 0.520429,-0.28543 l -1.756132,-1.75549 a 0.28546971,0.28546971 0 0 0 -0.229135,-0.0961 z m 22.344413,8.5e-4 a 0.28546971,0.28546971 0 0 0 -0.194568,0.0857 l -1.753623,1.75354 c 0.04127,0.0931 0.07762,0.1881 0.109042,0.28404 a 0.28897099,0.28897099 0 0 1 0.148576,0.003 c 0.06722,0.0192 0.131189,0.0424 0.192618,0.0689 l 1.706229,-1.70623 a 0.28546971,0.28546971 0 0 0 -2.85e-4,-0.40893 h -2.84e-4 a 0.28546971,0.28546971 0 0 0 -0.207672,-0.0797 z m 5.768199,1.39405 a 0.28546971,0.28546971 0 0 0 -0.154706,0.0396 l -5.216826,3.0119 c 0.08616,0.18165 0.138393,0.37082 0.168369,0.56196 l 5.333903,-3.07964 a 0.28546971,0.28546971 0 0 0 0.1051,-0.395 0.28546971,0.28546971 0 0 0 -0.23583,-0.13881 z m -33.8348164,5.6e-4 a 0.28551313,0.28551313 0 0 0 -0.1496881,0.53437 l 5.3854715,3.10919 c 0.05983,-0.0441 0.120454,-0.0866 0.182862,-0.126 a 0.28897099,0.28897099 0 0 1 -0.03428,-0.14439 c 0.0032,-0.098 0.01794,-0.19091 0.03735,-0.28125 L 9.6867636,260.5291 a 0.28551313,0.28551313 0 0 0 -0.135754,-0.0399 z m -9.2701486,2.75408 a 0.28551313,0.28551313 0 0 0 -0.0632793,0.56278 l 3.887464,1.0417 a 0.28546971,0.28546971 0 0 0 0.3545729,-0.20487 0.28546971,0.28546971 0 0 0 -0.2068333,-0.3465 l -3.88746409,-1.0417 a 0.28551313,0.28551313 0 0 0 -0.0844635,-0.0113 z m 52.348639,0 a 0.28546971,0.28546971 0 0 0 -0.07609,0.0109 l -3.888575,1.04197 a 0.28551313,0.28551313 0 1 0 0.147731,0.55137 l 3.888575,-1.04197 a 0.28546971,0.28546971 0 0 0 0.204607,-0.35486 0.28546971,0.28546971 0 0 0 -0.276239,-0.20738 z m -7.30272,1.95682 a 0.28546971,0.28546971 0 0 0 -0.07555,0.0109 l -5.74143,1.53843 c 0.0543,0.0925 0.10017,0.18717 0.13212,0.28433 a 0.28897099,0.28897099 0 0 1 0,0.001 c 0.0055,0.0176 0.0098,0.03 0.01226,0.0372 a 0.28897099,0.28897099 0 0 1 0.0022,0.006 0.28897099,0.28897099 0 0 1 0,8.5e-4 0.28897099,0.28897099 0 0 1 0.0088,0.11597 0.28897099,0.28897099 0 0 1 0,5.6e-4 c 0.0066,0.0327 0.01194,0.0655 0.01697,0.0981 l 5.716349,-1.53175 a 0.28546971,0.28546971 0 0 0 0.204048,-0.35457 0.28546971,0.28546971 0 0 0 -0.27625,-0.20739 z m -37.7448683,10e-4 a 0.28554577,0.28554577 0 0 0 -0.062721,0.56112 l 5.7896623,1.55126 c -0.01345,-0.17841 0.0014,-0.35081 0.04543,-0.50956 a 0.28897099,0.28897099 0 0 1 0.0014,-0.005 c 0.004,-0.0134 0.0075,-0.024 0.01002,-0.0337 a 0.28897099,0.28897099 0 0 1 0.0019,-0.006 0.28897099,0.28897099 0 0 1 5.7e-4,-0.001 0.28897099,0.28897099 0 0 1 0.0067,-0.0173 l -5.7079889,-1.5295 a 0.28554577,0.28554577 0 0 0 -0.085022,-0.0101 z m 3.0687723,5.06211 a 0.28546971,0.28546971 0 1 0 0.02872,0.57005 h 2.099833 a 0.28897099,0.28897099 0 0 1 0.0036,-0.0206 c 0.0011,-0.11886 0.0081,-0.23706 0.0329,-0.34983 a 0.28897099,0.28897099 0 0 1 0,-0.002 c 0.01553,-0.0684 0.03623,-0.13391 0.06022,-0.19763 h -2.19656 a 0.28546971,0.28546971 0 0 0 -0.02872,0 z m 29.179395,0 c -0.0022,0.004 -0.0032,0.008 -0.0055,0.0119 a 0.28897099,0.28897099 0 0 1 0.109556,0.10816 c 0.0843,0.1475 0.137911,0.29909 0.16976,0.44991 h 2.145264 a 0.28546971,0.28546971 0 0 0 0.288785,-0.28961 v -2.9e-4 a 0.28546971,0.28546971 0 0 0 -0.288785,-0.28015 z m -26.382684,3.4688 -5.928202,1.5886 a 0.28551313,0.28551313 0 1 0 0.1477373,0.55136 l 5.8298027,-1.56213 c 0.0044,-0.17543 0.0284,-0.34917 0.06133,-0.51818 a 0.28897099,0.28897099 0 0 1 -0.110665,-0.0596 z m 26.175013,0.0413 c -0.104554,0.18176 -0.236378,0.34268 -0.37938,0.48948 l 6.008199,1.60979 a 0.28546971,0.28546971 0 0 0 0.353741,-0.20516 0.28546971,0.28546971 0 0 0 -0.205997,-0.3462 z m 9.105686,2.45106 a 0.28551313,0.28551313 0 0 0 -0.06328,0.56279 l 3.888575,1.04197 a 0.28546971,0.28546971 0 0 0 0.354572,-0.20488 0.28546971,0.28546971 0 0 0 -0.206839,-0.34676 l -3.888576,-1.04169 a 0.28551313,0.28551313 0 0 0 -0.0844,-0.0114 z m -44.5466676,2.8e-4 a 0.28546971,0.28546971 0 0 0 -0.076384,0.0109 l -3.88746402,1.04141 a 0.28555022,0.28555022 0 1 0 0.14773951,0.55166 l 3.88746401,-1.04169 a 0.28546971,0.28546971 0 0 0 0.2048802,-0.35486 0.28546971,0.28546971 0 0 0 -0.2762412,-0.20739 z m 10.4347716,0.824 -5.2148765,3.01078 a 0.28551313,0.28551313 0 1 0 0.2854421,0.49451 l 5.4019184,-3.11896 a 0.28897099,0.28897099 0 0 1 -8.55e-4,-2.8e-4 c -0.192213,-0.10247 -0.349017,-0.23596 -0.471649,-0.38607 z m 23.709741,0.0151 c -0.0044,0.008 -0.0066,0.0165 -0.01117,0.0242 a 0.28897099,0.28897099 0 0 1 -5.69e-4,0.001 c -0.0088,0.0161 -0.01544,0.0273 -0.01927,0.034 a 0.28897099,0.28897099 0 0 1 -0.0044,0.006 0.28897099,0.28897099 0 0 1 -0.07751,0.0859 c -0.07565,0.10983 -0.161493,0.2073 -0.254507,0.29519 l 5.272858,3.04424 a 0.28546971,0.28546971 0 0 0 0.394718,-0.10652 0.28546971,0.28546971 0 0 0 -0.109261,-0.38803 z m -2.242002,2.70778 c -0.0693,0.19719 -0.173394,0.36596 -0.298813,0.50677 l 1.637935,1.63795 a 0.28546971,0.28546971 0 0 0 0.408929,-2.8e-4 v -2.9e-4 a 0.28546971,0.28546971 0 0 0 -0.0066,-0.40224 z m -19.316616,0.0642 -1.668048,1.66805 a 0.28546971,0.28546971 0 1 0 0.403076,0.40308 l 1.640171,-1.64017 c -0.04247,-0.0314 -0.08432,-0.0634 -0.122372,-0.0984 a 0.28897099,0.28897099 0 0 1 -0.0014,-5.7e-4 c -0.01336,-0.0124 -0.02232,-0.0223 -0.0276,-0.027 a 0.28897099,0.28897099 0 0 1 -0.0047,-0.004 0.28897099,0.28897099 0 0 1 -0.0655,-0.0975 c -0.05696,-0.0648 -0.107673,-0.13274 -0.153592,-0.20266 z m 29.674455,1.95042 a 0.28551313,0.28551313 0 0 0 -0.15024,0.53577 l 3.486336,2.01285 a 0.28546971,0.28546971 0 0 0 0.395824,-0.10597 0.28546971,0.28546971 0 0 0 -0.110377,-0.38858 l -3.486347,-2.01286 a 0.28551313,0.28551313 0 0 0 -0.135196,-0.0413 z m -39.9458795,5.7e-4 a 0.28546971,0.28546971 0 0 0 -0.1555421,0.0402 l -3.4855062,2.0123 a 0.28551313,0.28551313 0 1 0 0.285442,0.49451 l 3.485505,-2.01246 a 0.28546971,0.28546971 0 0 0 0.1059216,-0.39555 0.28546971,0.28546971 0 0 0 -0.2358247,-0.1391 z m 13.0926655,0.0827 -3.14292,5.44346 a 0.28551313,0.28551313 0 1 0 0.494505,0.28543 l 3.035322,-5.25752 c -0.152975,-0.13951 -0.278025,-0.30115 -0.386907,-0.47137 z m 13.800139,0.10509 c -0.137079,0.0265 -0.275538,0.0421 -0.412551,0.0519 a 0.28897099,0.28897099 0 0 1 -0.03908,0.14301 c -0.01577,0.0271 -0.0324,0.0532 -0.04937,0.0789 l 3.089681,5.35175 a 0.28546971,0.28546971 0 0 0 0.394992,0.10533 0.28546971,0.28546971 0 0 0 0.09919,-0.3908 z m -10.198395,1.45482 a 0.28897099,0.28897099 0 0 1 -0.131292,0.0698 c -0.129491,0.0301 -0.25598,0.0408 -0.378823,0.039 l -1.552643,5.79467 a 0.28551313,0.28551313 0 1 0 0.55137,0.14773 l 1.601147,-5.97559 c -0.02979,-0.0254 -0.06105,-0.0493 -0.08976,-0.0755 z m 7.059099,0.15833 c -0.195312,0.0444 -0.38955,0.0542 -0.580363,0.0399 l 1.568811,5.85489 a 0.28546971,0.28546971 0 0 0 0.354572,0.20405 0.28546971,0.28546971 0 0 0 0.1968,-0.35178 z m -3.506414,0.56503 c -0.08014,0.0247 -0.160498,0.0446 -0.24056,0.0552 a 0.28897099,0.28897099 0 0 1 -0.0032,0 c -0.0531,0.006 -0.105538,0.0101 -0.157782,0.0111 a 0.28897099,0.28897099 0 0 1 -0.0011,0 c -0.01872,2.8e-4 -0.03164,-8e-5 -0.03952,0 a 0.28897099,0.28897099 0 0 1 -0.0077,0 0.28897099,0.28897099 0 0 1 -8.54e-4,0 0.28897099,0.28897099 0 0 1 -0.113169,-0.0254 c -0.0022,-1.4e-4 -0.0044,-5.7e-4 -0.0066,-8.6e-4 v 2.14751 a 0.28546971,0.28546971 0 0 0 0.289617,0.28879 0.28546971,0.28546971 0 0 0 0.280422,-0.28879 z m 11.23674,6.07371 a 0.28551313,0.28551313 0 0 0 -0.235545,0.43373 l 2.01286,3.48662 a 0.28546971,0.28546971 0 0 0 0.39555,0.10597 0.28546971,0.28546971 0 0 0 0.09897,-0.39136 l -2.012872,-3.48662 a 0.28551313,0.28551313 0 0 0 -0.258952,-0.14829 z m -23.04938,10e-4 a 0.28546971,0.28546971 0 0 0 -0.251991,0.14634 l -2.012305,3.48523 a 0.28551313,0.28551313 0 1 0 0.494504,0.28544 l 2.012306,-3.48522 a 0.28546971,0.28546971 0 0 0 -0.106206,-0.39555 0.28546971,0.28546971 0 0 0 -0.13631,-0.0362 z m 17.505298,2.30276 a 0.28551313,0.28551313 0 0 0 -0.283213,0.36544 l 1.041972,3.88859 a 0.28546971,0.28546971 0 0 0 0.354845,0.20488 0.28546971,0.28546971 0 0 0 0.196527,-0.35263 l -1.041698,-3.88857 a 0.28551313,0.28551313 0 0 0 -0.268433,-0.21771 z m -11.961216,0.002 a 0.28546971,0.28546971 0 0 0 -0.261747,0.21519 l -1.041693,3.88747 a 0.28554507,0.28554507 0 1 0 0.551647,0.14773 l 1.041416,-3.88746 a 0.28546971,0.28546971 0 0 0 -0.204603,-0.35457 0.28546971,0.28546971 0 0 0 -0.08502,-0.009 z"
       style="color:#000000;font-style:normal;font-variant:normal;font-weight:normal;font-stretch:normal;font-size:medium;line-height:normal;font-family:sans-serif;font-variant-ligatures:normal;font-variant-position:normal;font-variant-caps:normal;font-variant-numeric:normal;font-variant-alternates:normal;font-feature-settings:normal;text-indent:0;text-align:start;text-decoration:none;text-decoration-line:none;text-decoration-style:solid;text-decoration-color:#000000;letter-spacing:normal;word-spacing:normal;text-transform:none;writing-mode:lr-tb;direction:ltr;text-orientation:mixed;dominant-baseline:auto;baseline-shift:baseline;text-anchor:start;white-space:normal;shape-padding:0;clip-rule:nonzero;display:inline;overflow:visible;visibility:visible;opacity:1;isolation:auto;mix-blend-mode:normal;color-interpolation:sRGB;color-interpolation-filters:linearRGB;solid-color:#000000;solid-opacity:1;vector-effect:none;fill:#000000;fill-opacity:1;fill-rule:nonzero;stroke:none;stroke-width:1.05833316;stroke-linecap:round;stroke-linejoin:round;stroke-miterlimit:4;stroke-dasharray:none;stroke-dashoffset:0;stroke-opacity:1;color-rendering:auto;image-rendering:auto;shape-rendering:auto;text-rendering:auto;enable-background:accumulate" />
    <path
       id="path1959"
       d="m 25.599638,256.86484 a 0.28897099,0.28897099 0 0 0 -0.0055,2e-4 l 5.47e-4,3.8e-4 a 0.28897099,0.28897099 0 0 0 -0.01434,5.4e-4 h -5.36e-4 a 0.28897099,0.28897099 0 0 0 -0.0066,5.4e-4 c -0.0077,0.001 -0.02168,0.001 -0.03985,0.004 a 0.28897099,0.28897099 0 0 0 -0.0011,5.4e-4 c -0.256346,0.0291 -0.517379,0.12701 -0.753581,0.30775 a 0.28897099,0.28897099 0 0 0 -0.09175,0.1189 c -0.330596,-0.10762 -0.683764,-0.16678 -1.049299,-0.10401 a 0.28897099,0.28897099 0 0 0 -0.117381,0.004 c -1.91e-4,8e-5 -4.83e-4,-5e-5 -6.47e-4,0 a 0.28897099,0.28897099 0 0 0 -0.0069,0.002 c -0.0071,0.002 -0.01964,0.004 -0.03784,0.0101 a 0.28897099,0.28897099 0 0 0 -0.0013,5.4e-4 c -0.246224,0.0702 -0.486501,0.20928 -0.689058,0.42515 a 0.28897099,0.28897099 0 0 0 -0.06959,0.13015 c -0.342685,-0.0529 -0.701315,-0.0562 -1.052307,0.0633 a 0.28897099,0.28897099 0 0 0 -0.111553,0.0228 0.28897099,0.28897099 0 0 0 -0.0079,0.003 c -0.0069,0.003 -0.01878,0.009 -0.03558,0.0162 a 0.28897099,0.28897099 0 0 0 -0.0013,0 c -0.231991,0.10739 -0.447286,0.28251 -0.614379,0.5269 a 0.28897099,0.28897099 0 0 0 -0.04887,0.13939 c -0.347048,-5.3e-4 -0.702412,0.049 -1.032365,0.21896 a 0.28897099,0.28897099 0 0 0 -0.10741,0.0383 c -2.89e-4,1.8e-4 -4.83e-4,5.3e-4 -6.47e-4,5.3e-4 -1.91e-4,10e-5 -5.93e-4,-1e-4 -6.47e-4,0 a 0.28897099,0.28897099 0 0 0 -0.0053,0.004 c -0.0066,0.004 -0.01726,0.0109 -0.03274,0.0205 a 0.28897099,0.28897099 0 0 0 -0.0013,5.4e-4 c -0.213933,0.14048 -0.401734,0.34483 -0.531794,0.61136 a 0.28897099,0.28897099 0 0 0 -0.02857,0.1458 c -0.344013,0.0491 -0.688905,0.14924 -0.991733,0.364 a 0.28897099,0.28897099 0 0 0 -0.10233,0.0542 c -2.92e-4,1.8e-4 -4.83e-4,5.3e-4 -6.48e-4,5.3e-4 a 0.28897099,0.28897099 0 0 0 -0.0053,0.004 c -0.0059,0.004 -0.01567,0.0133 -0.02969,0.0256 a 0.28897099,0.28897099 0 0 0 -6.47e-4,5.4e-4 c -0.192193,0.16953 -0.349947,0.39867 -0.441499,0.68115 a 0.28897099,0.28897099 0 0 0 -0.0071,0.14862 c -0.335105,0.0968 -0.663527,0.24401 -0.934172,0.49981 a 0.28897099,0.28897099 0 0 0 -0.0918,0.0667 0.28897099,0.28897099 0 0 0 -0.0053,0.005 c -0.0053,0.005 -0.01389,0.0157 -0.0256,0.0293 a 0.28897099,0.28897099 0 0 0 -0.0013,10e-4 c -0.166821,0.19462 -0.291187,0.44351 -0.342737,0.7359 a 0.28897099,0.28897099 0 0 0 0.01277,0.14786 c -0.317604,0.142 -0.620577,0.33366 -0.852341,0.62358 a 0.28897099,0.28897099 0 0 0 -0.0839,0.0811 0.28897099,0.28897099 0 0 0 -0.0046,0.005 c -0.0039,0.006 -0.01137,0.0172 -0.02123,0.0325 a 0.28897099,0.28897099 0 0 0 -6.48e-4,5.5e-4 c -0.137812,0.21584 -0.226117,0.47956 -0.236084,0.77579 a 0.28897099,0.28897099 0 0 0 0.03425,0.14428 c -0.292661,0.18457 -0.563601,0.41632 -0.750946,0.73439 a 0.28897099,0.28897099 0 0 0 -0.0775,0.10182 c -0.0032,0.006 -0.0088,0.0184 -0.01633,0.0348 a 0.28897099,0.28897099 0 0 0 -5.93e-4,10e-4 c -0.105057,0.23312 -0.15356,0.5058 -0.120206,0.79985 a 0.28897099,0.28897099 0 0 0 0.05397,0.1379 c -0.26223,0.22616 -0.496667,0.49621 -0.633374,0.8403 a 0.28897099,0.28897099 0 0 0 -0.05622,0.10105 0.28897099,0.28897099 0 0 0 -6.47e-4,0.001 0.28897099,0.28897099 0 0 0 -0.0019,0.006 c -0.0026,0.0101 -0.0059,0.0206 -0.0099,0.0339 a 0.28897099,0.28897099 0 0 0 -0.0013,0.004 c -0.0682,0.24625 -0.07482,0.52351 0.0032,0.80908 a 0.28897099,0.28897099 0 0 0 0.07543,0.12791 c -0.224185,0.26548 -0.41341,0.57089 -0.493426,0.93493 a 0.28897099,0.28897099 0 0 0 -0.03914,0.10816 0.28897099,0.28897099 0 0 0 -6.49e-4,10e-4 0.28897099,0.28897099 0 0 0 -6.47e-4,0.006 c -0.0013,0.009 -0.0026,0.0217 -0.0046,0.0399 a 0.28897099,0.28897099 0 0 0 -6.47e-4,10e-4 c -0.02812,0.25539 0.01073,0.53137 0.135821,0.80192 a 0.28897099,0.28897099 0 0 0 0.1059,0.12154 c -0.129247,0.21932 -0.260437,0.44264 -0.319978,0.70466 a 0.28897099,0.28897099 0 0 0 0,0.002 c -0.02475,0.11278 -0.03155,0.23083 -0.03275,0.3497 a 0.28897099,0.28897099 0 0 0 -0.0071,0.0704 c 2.6e-5,5.3e-4 -2.7e-5,10e-4 0,0.002 a 0.28897099,0.28897099 0 0 0 0,0.005 l 0.0019,0.0383 a 0.28897099,0.28897099 0 0 0 6.47e-4,0.004 c 0.01798,0.25821 0.105605,0.52416 0.27653,0.76844 a 0.28897099,0.28897099 0 0 0 0.115126,0.0961 c -0.121932,0.32735 -0.196354,0.68003 -0.14786,1.04929 a 0.28897099,0.28897099 0 0 0 0,0.11457 0.28897099,0.28897099 0 0 0 0,10e-4 0.28897099,0.28897099 0 0 0 0.0013,0.006 c 0.0019,0.008 0.0046,0.0208 0.0084,0.0378 a 0.28897099,0.28897099 0 0 0 6.47e-4,0.002 c 0.06026,0.24913 0.189786,0.49483 0.397483,0.70599 a 0.28897099,0.28897099 0 0 0 0.127916,0.0754 c -0.07339,0.37673 -0.108483,0.7767 0.04041,1.16744 a 0.28897099,0.28897099 0 0 0 0.0032,0.006 c 0.0026,0.008 0.0071,0.0192 0.01409,0.0364 a 0.28897099,0.28897099 0 0 0 6.48e-4,0.001 c 0.0046,0.0116 0.01964,0.0198 0.0248,0.0314 0.09999,0.22288 0.251694,0.43549 0.477811,0.6029 a 0.28897099,0.28897099 0 0 0 0.137322,0.0548 c -0.01336,0.34521 0.0244,0.69989 0.180585,1.03443 a 0.28897099,0.28897099 0 0 0 0,5.4e-4 0.28897099,0.28897099 0 0 0 0.03612,0.11306 0.28897099,0.28897099 0 0 0 0.0032,0.006 c 0.0032,0.005 0.0096,0.0173 0.01918,0.0334 a 0.28897099,0.28897099 0 0 0 6.47e-4,5.3e-4 c 0.132593,0.21879 0.330024,0.41454 0.591619,0.55398 a 0.28897099,0.28897099 0 0 0 0.14428,0.0334 c 0.03691,0.34566 0.125688,0.69366 0.329952,1.00397 a 0.28897099,0.28897099 0 0 0 0.04968,0.10302 0.28897099,0.28897099 0 0 0 6.47e-4,5.4e-4 c 9.9e-5,1.9e-4 -9.3e-5,3.9e-4 0,5.5e-4 a 0.28897099,0.28897099 0 0 0 0.0039,0.004 c 0.0046,0.005 0.0123,0.0162 0.02408,0.0307 a 0.28897099,0.28897099 0 0 0 6.48e-4,10e-4 c 0.162635,0.19796 0.386463,0.36294 0.665544,0.46427 a 0.28897099,0.28897099 0 0 0 0.147859,0.0131 c 0.08493,0.33746 0.221098,0.66925 0.466336,0.94827 a 0.28897099,0.28897099 0 0 0 0.06548,0.0974 0.28897099,0.28897099 0 0 0 0.0046,0.004 c 0.0053,0.004 0.01449,0.0145 0.02784,0.0269 a 0.28897099,0.28897099 0 0 0 0.0013,5.5e-4 c 0.188714,0.17349 0.43263,0.30662 0.723101,0.36831 a 0.28897099,0.28897099 0 0 0 0.148614,-0.009 c 0.144974,0.35741 0.333378,0.71301 0.671187,0.96182 a 0.28897099,0.28897099 0 0 0 0.0053,0.003 c 0.0066,0.004 0.0168,0.013 0.03195,0.0236 a 0.28897099,0.28897099 0 0 0 0.0013,5.4e-4 c 0.0104,0.008 0.02705,0.005 0.03764,0.013 0.205097,0.13368 0.447425,0.23069 0.728749,0.25017 a 0.28897099,0.28897099 0 0 0 0.145788,-0.0283 c 0.174593,0.30022 0.396862,0.58101 0.709564,0.77993 a 0.28897099,0.28897099 0 0 0 0.08954,0.0746 0.28897099,0.28897099 0 0 0 0.0066,0.003 c 0.007,0.003 0.01818,0.0101 0.03425,0.0178 a 0.28897099,0.28897099 0 0 0 0.0013,5.5e-4 c 0.229159,0.11357 0.500351,0.17228 0.795533,0.14994 a 0.28897099,0.28897099 0 0 0 0.140146,-0.049 c 0.216196,0.27077 0.476858,0.5157 0.815468,0.66554 a 0.28897099,0.28897099 0 0 0 0.09821,0.0596 0.28897099,0.28897099 0 0 0 6.47e-4,0 c 2.85e-4,10e-5 1.91e-4,5.6e-4 5.93e-4,5.6e-4 a 0.28897099,0.28897099 0 0 0 0.0066,0.002 c 0.0072,0.002 0.01957,0.006 0.03684,0.0129 a 0.28897099,0.28897099 0 0 0 0.0013,0 c 0.243473,0.078 0.520049,0.0954 0.808326,0.0283 a 0.28897099,0.28897099 0 0 0 0.131494,-0.0697 c 0.255061,0.23356 0.55126,0.43395 0.909335,0.52897 a 0.28897099,0.28897099 0 0 0 0.10741,0.0447 0.28897099,0.28897099 0 0 0 0.0026,5.4e-4 0.28897099,0.28897099 0 0 0 0.0066,0.001 c 0.0053,5.5e-4 0.01944,0.003 0.04041,0.006 0.253553,0.0386 0.530751,0.0117 0.805688,-0.1016 a 0.28897099,0.28897099 0 0 0 0.118698,-0.0911 c 0.29335,0.19058 0.62319,0.34124 0.998125,0.37473 a 0.28897099,0.28897099 0 0 0 0.11306,0.0255 0.28897099,0.28897099 0 0 0 0.0011,0 0.28897099,0.28897099 0 0 0 0.0077,0 c 0.0077,-8e-5 0.02102,2.8e-4 0.03974,0 a 0.28897099,0.28897099 0 0 0 0.0011,0 c 0.05223,-10e-4 0.104773,-0.004 0.157815,-0.0112 a 0.28897099,0.28897099 0 0 0 0.0032,0 c 0.209916,-0.0279 0.42281,-0.10291 0.624165,-0.2312 a 0.28897099,0.28897099 0 0 0 0.101051,-0.11231 c 0.32257,0.13619 0.672248,0.22489 1.043647,0.19208 a 0.28897099,0.28897099 0 0 0 0.118698,0.004 0.28897099,0.28897099 0 0 0 0.0066,-5.3e-4 c 0.0055,-0.001 0.01993,-0.003 0.04061,-0.008 0.251825,-0.05 0.50272,-0.16995 0.722347,-0.36907 a 0.28897099,0.28897099 0 0 0 0.08036,-0.12434 c 0.336924,0.0797 0.693126,0.11021 1.051542,0.0191 a 0.28897099,0.28897099 0 0 0 5.46e-4,0 0.28897099,0.28897099 0 0 0 0.114374,-0.0136 0.28897099,0.28897099 0 0 0 0.0022,-5.3e-4 h 5.37e-4 a 0.28897099,0.28897099 0 0 0 0.0066,-0.002 c 0.0066,-0.002 0.01927,-0.006 0.0369,-0.0134 a 0.28897099,0.28897099 0 0 0 0.0011,0 c 0.239608,-0.0893 0.46772,-0.24688 0.652751,-0.47782 a 0.28897099,0.28897099 0 0 0 0.05967,-0.13582 c 0.34544,0.0264 0.702739,0.002 1.043647,-0.14221 a 0.28897099,0.28897099 0 0 0 0.10948,-0.0307 0.28897099,0.28897099 0 0 0 0.0022,-5.4e-4 0.28897099,0.28897099 0 0 0 0.0066,-0.003 c 0.0066,-0.003 0.01752,-0.009 0.0335,-0.0176 a 0.28897099,0.28897099 0 0 0 0.0011,-0.001 c 0.223426,-0.12445 0.425734,-0.31391 0.574506,-0.57016 a 0.28897099,0.28897099 0 0 0 0.03908,-0.14297 c 0.38343,-0.0271 0.779243,-0.0967 1.119835,-0.34048 a 0.28897099,0.28897099 0 0 0 0.0055,-0.004 l 5.37e-4,-5.6e-4 c 0.0066,-0.004 0.01675,-0.0113 0.03065,-0.022 a 0.28897099,0.28897099 0 0 0 0.0011,-10e-4 c 0.0077,-0.005 0.01106,-0.0197 0.01916,-0.0261 0.192925,-0.15402 0.362049,-0.35729 0.468584,-0.62153 a 0.28897099,0.28897099 0 0 0 0.01763,-0.1471 c 0.341216,-0.0733 0.67918,-0.19819 0.967089,-0.4351 a 0.28897099,0.28897099 0 0 0 0.09448,-0.0583 0.28897099,0.28897099 0 0 0 0.0011,-10e-4 h 5.37e-4 a 0.28897099,0.28897099 0 0 0 0.0055,-0.005 c 0.0044,-0.004 0.01401,-0.014 0.02715,-0.0271 a 0.28897099,0.28897099 0 0 0 0.0011,-5.5e-4 c 0.179951,-0.18256 0.320841,-0.42194 0.392593,-0.71013 a 0.28897099,0.28897099 0 0 0 -0.0022,-0.14861 c 0.327179,-0.11968 0.643893,-0.28976 0.895795,-0.5632 a 0.28897099,0.28897099 0 0 0 0.089,-0.0744 0.28897099,0.28897099 0 0 0 0.0044,-0.004 c 0.0044,-0.005 0.01292,-0.016 0.0243,-0.0312 a 0.28897099,0.28897099 0 0 0 5.37e-4,-0.001 c 0.0066,-0.009 0.0055,-0.0246 0.01281,-0.0339 0.141864,-0.20082 0.247699,-0.44134 0.277269,-0.72311 a 0.28897099,0.28897099 0 0 0 -0.02277,-0.14654 c 0.306356,-0.16385 0.594583,-0.37639 0.804763,-0.68172 a 0.28897099,0.28897099 0 0 0 0.07751,-0.086 0.28897099,0.28897099 0 0 0 0.0044,-0.006 c 0.0032,-0.006 0.0098,-0.0179 0.01916,-0.0339 a 0.28897099,0.28897099 0 0 0 5.48e-4,-10e-4 c 0.121894,-0.22499 0.190538,-0.49324 0.179086,-0.78914 a 0.28897099,0.28897099 0 0 0 -0.04402,-0.14146 c 0.279043,-0.20613 0.533331,-0.4584 0.696017,-0.79139 a 0.28897099,0.28897099 0 0 0 0.06393,-0.0967 0.28897099,0.28897099 0 0 0 0.0022,-0.006 c 0.0022,-0.008 0.0077,-0.0187 0.01358,-0.0362 a 0.28897099,0.28897099 0 0 0 5.46e-4,-10e-4 c 0.08725,-0.2403 0.115272,-0.51643 0.05967,-0.80702 a 0.28897099,0.28897099 0 0 0 -0.06393,-0.133 c 0.243635,-0.24564 0.455314,-0.53344 0.56452,-0.88733 a 0.28897099,0.28897099 0 0 0 0.04905,-0.10718 0.28897099,0.28897099 0 0 0 0.0011,-0.006 c 0.0011,-0.009 0.0044,-0.0213 0.0077,-0.0378 a 0.28897099,0.28897099 0 0 0 5.36e-4,-0.002 c 0.04872,-0.25143 0.03328,-0.52885 -0.06832,-0.80775 a 0.28897099,0.28897099 0 0 0 -0.08594,-0.12227 c 0.202198,-0.28417 0.366526,-0.60604 0.415913,-0.97762 a 0.28897099,0.28897099 0 0 0 0.03044,-0.11155 0.28897099,0.28897099 0 0 0 0,-10e-4 0.28897099,0.28897099 0 0 0 0,-0.009 c 1.97e-4,-0.008 5.37e-4,-0.0199 0.0011,-0.0385 a 0.28897099,0.28897099 0 0 0 0,-5.4e-4 c 0.0066,-0.25819 -0.05517,-0.53219 -0.204093,-0.79272 a 0.28897099,0.28897099 0 0 0 -0.109479,-0.10816 c 0.15013,-0.31663 0.253249,-0.66232 0.236826,-1.03443 a 0.28897099,0.28897099 0 0 0 5.37e-4,-10e-4 0.28897099,0.28897099 0 0 0 0.0098,-0.12079 0.28897099,0.28897099 0 0 0 0,-0.002 c -0.0011,-0.0142 -0.0032,-0.0283 -0.0055,-0.0411 a 0.28897099,0.28897099 0 0 0 -5.37e-4,-0.003 c -0.03974,-0.25422 -0.148838,-0.50999 -0.338981,-0.73797 a 0.28897099,0.28897099 0 0 0 -0.122278,-0.0864 c 0.0935,-0.334 0.138239,-0.68941 0.06109,-1.05155 a 0.28897099,0.28897099 0 0 0 0,-5.4e-4 0.28897099,0.28897099 0 0 0 -0.0088,-0.11588 0.28897099,0.28897099 0 0 0 0,-0.001 0.28897099,0.28897099 0 0 0 -0.0022,-0.006 c -0.0022,-0.006 -0.0066,-0.0194 -0.01226,-0.0372 a 0.28897099,0.28897099 0 0 0 0,-10e-4 c -0.07992,-0.24303 -0.22844,-0.47733 -0.452041,-0.67119 a 0.28897099,0.28897099 0 0 0 -0.132996,-0.0647 c 0.03963,-0.34383 0.02868,-0.70086 -0.103021,-1.04665 a 0.28897099,0.28897099 0 0 0 0,-0.001 0.28897099,0.28897099 0 0 0 -0.02705,-0.11248 0.28897099,0.28897099 0 0 0 -0.0032,-0.006 c -0.0032,-0.006 -0.0087,-0.0184 -0.01719,-0.035 a 0.28897099,0.28897099 0 0 0 -5.46e-4,-10e-4 c -0.11606,-0.22783 -0.298398,-0.43646 -0.548921,-0.59443 a 0.28897099,0.28897099 0 0 0 -0.140703,-0.0442 c -0.01204,-0.34758 -0.07499,-0.70103 -0.257343,-1.02522 a 0.28897099,0.28897099 0 0 0 -0.04193,-0.10378 0.28897099,0.28897099 0 0 0 -5.35e-4,-0.001 0.28897099,0.28897099 0 0 0 -0.0044,-0.006 c -0.0044,-0.006 -0.01149,-0.0177 -0.022,-0.0327 a 0.28897099,0.28897099 0 0 0 -5.36e-4,-5.4e-4 c -0.148127,-0.20885 -0.3587,-0.38921 -0.629827,-0.50979 a 0.28897099,0.28897099 0 0 0 -0.146527,-0.0233 c -0.0612,-0.34281 -0.173689,-0.68429 -0.399546,-0.97989 a 0.28897099,0.28897099 0 0 0 -0.05617,-0.098 0.28897099,0.28897099 0 0 0 -0.0011,-10e-4 0.28897099,0.28897099 0 0 0 -0.0044,-0.005 c -0.0044,-0.005 -0.01369,-0.0155 -0.02639,-0.0293 a 0.28897099,0.28897099 0 0 0 -0.0011,-5.3e-4 c -0.176175,-0.18619 -0.410494,-0.33555 -0.696017,-0.41724 a 0.28897099,0.28897099 0 0 0 -0.148618,-0.002 c -0.108167,-0.3307 -0.267077,-0.65254 -0.531053,-0.91366 a 0.28897099,0.28897099 0 0 0 -0.07182,-0.0924 0.28897099,0.28897099 0 0 0 -0.0044,-0.004 c -0.0055,-0.004 -0.01577,-0.0135 -0.02989,-0.0248 a 0.28897099,0.28897099 0 0 0 -0.0011,-5.3e-4 c -0.200293,-0.15991 -0.453278,-0.27566 -0.747187,-0.31697 a 0.28897099,0.28897099 0 0 0 -0.147097,0.0185 c -0.152889,-0.31211 -0.354506,-0.60778 -0.652006,-0.82903 a 0.28897099,0.28897099 0 0 0 -0.08463,-0.0818 0.28897099,0.28897099 0 0 0 -0.0055,-0.004 c -0.0066,-0.004 -0.01774,-0.0109 -0.0335,-0.0199 a 0.28897099,0.28897099 0 0 0 -0.0011,-5.4e-4 c -0.220526,-0.12998 -0.48666,-0.20837 -0.782922,-0.20767 a 0.28897099,0.28897099 0 0 0 -0.142784,0.0383 c -0.196154,-0.28719 -0.43897,-0.55134 -0.766555,-0.7265 a 0.28897099,0.28897099 0 0 0 -0.08879,-0.0647 0.28897099,0.28897099 0 0 0 -5.47e-4,0 0.28897099,0.28897099 0 0 0 -0.0088,-0.004 c -0.0066,-0.002 -0.01905,-0.009 -0.03635,-0.0157 a 0.28897099,0.28897099 0 0 0 -0.0011,-5.4e-4 c -0.236826,-0.0962 -0.51092,-0.13473 -0.803438,-0.0903 a 0.28897099,0.28897099 0 0 0 -0.135623,0.0591 c -0.236695,-0.25387 -0.516777,-0.47801 -0.867397,-0.60084 a 0.28897099,0.28897099 0 0 0 -0.09667,-0.0499 0.28897099,0.28897099 0 0 0 -0.0044,-10e-4 0.28897099,0.28897099 0 0 0 -0.0077,-0.002 c -0.0077,-10e-4 -0.01927,-0.005 -0.03767,-0.0101 a 0.28897099,0.28897099 0 0 0 -0.0011,0 c -0.249055,-0.0587 -0.526641,-0.0543 -0.809076,0.0355 a 0.28897099,0.28897099 0 0 0 -0.125091,0.0804 c -0.274554,-0.21314 -0.588213,-0.38924 -0.955616,-0.4543 a 0.28897099,0.28897099 0 0 0 -0.112304,-0.0355 0.28897099,0.28897099 0 0 0 -0.0077,-5.5e-4 c -0.0077,-5.3e-4 -0.0208,-0.002 -0.03908,-0.004 a 0.28897099,0.28897099 0 0 0 -0.0011,0 c -0.256927,-0.0174 -0.532773,0.0328 -0.798534,0.16987 a 0.28897099,0.28897099 0 0 0 -0.106633,0.0946 c -0.04839,-0.0257 -0.09481,-0.0538 -0.145028,-0.0775 a 0.28897099,0.28897099 0 0 0 -5.48e-4,-5.4e-4 c -0.257484,-0.12004 -0.549883,-0.17144 -0.848204,-0.17928 a 0.28897099,0.28897099 0 0 0 -0.13882,-0.0342 z m 0.112687,0.28518 c 0.256314,0.001 0.509771,0.0773 0.75264,0.19056 0.09941,0.0469 0.196745,0.0995 0.291949,0.15558 0.242257,0.14255 0.469832,0.3057 0.689055,0.446 -0.349536,0.22199 -0.654951,0.2232 -0.981004,0.12304 -0.0139,-0.004 -0.0277,-0.009 -0.04149,-0.0136 -0.348353,-0.1182 -0.715833,-0.3421 -1.11193,-0.51109 -0.117636,-0.0502 -0.237199,-0.0955 -0.35836,-0.13187 0.196166,-0.15011 0.403477,-0.22734 0.610809,-0.25075 0.01281,-0.001 0.02551,-0.002 0.03843,-0.004 0.03667,-0.002 0.07346,-0.004 0.110049,-0.004 z m 1.827894,0.0279 c 0.02627,7e-5 0.05223,0.001 0.07828,0.002 0.01281,0.001 0.02584,0.002 0.03854,0.003 0.398364,0.0396 0.752968,0.26724 1.069244,0.535 0.212434,0.17982 0.408107,0.37783 0.600266,0.5521 -0.396076,0.1662 -0.706002,0.10247 -1.019945,-0.0668 -0.320633,-0.17289 -0.641978,-0.45515 -1.003217,-0.69149 -0.10729,-0.0702 -0.21758,-0.13614 -0.331264,-0.19376 0.192936,-0.0994 0.384186,-0.14155 0.568112,-0.14108 z m -3.658432,0.26148 c 0.29614,-0.008 0.599502,0.0713 0.891279,0.18021 0.26111,0.0974 0.512979,0.21834 0.753407,0.31903 -0.31839,0.29012 -0.63149,0.33366 -0.984412,0.27972 -0.360298,-0.0551 -0.757885,-0.21217 -1.17439,-0.3132 -0.123678,-0.03 -0.24844,-0.0551 -0.373406,-0.0713 0.168203,-0.17924 0.358445,-0.28844 0.557379,-0.34517 0.0123,-0.003 0.02474,-0.006 0.03704,-0.0101 0.09643,-0.0243 0.194369,-0.0366 0.293084,-0.0393 z m 5.505891,0.0814 c 0.08047,0.002 0.158373,0.0135 0.233826,0.0312 0.01237,0.002 0.02485,0.006 0.03722,0.0101 0.383847,0.10334 0.695109,0.38328 0.964647,0.6979 0.180938,0.21118 0.343307,0.43769 0.506596,0.64033 -0.418157,0.10236 -0.715581,-0.0109 -0.998324,-0.22894 -0.288883,-0.22278 -0.559244,-0.55352 -0.87379,-0.84482 -0.09339,-0.0865 -0.190209,-0.1692 -0.291576,-0.24435 0.146527,-0.0467 0.287307,-0.065 0.421376,-0.0608 z m -7.146431,0.48534 c 0.201023,-0.002 0.407284,0.0243 0.61043,0.0644 0.272747,0.0539 0.540149,0.13124 0.792894,0.18982 -0.264802,0.338 -0.56712,0.43356 -0.924388,0.43773 -0.36475,0.004 -0.782537,-0.0879 -1.210318,-0.12359 -0.127017,-0.0109 -0.254558,-0.0163 -0.380741,-0.0134 0.138903,-0.20318 0.310044,-0.34022 0.49756,-0.42702 0.01157,-0.005 0.02334,-0.0101 0.03499,-0.0157 0.182681,-0.0778 0.378552,-0.10969 0.579574,-0.11229 z m 3.539732,0.0673 c 0.182055,0.0902 0.358043,0.18667 0.549676,0.25169 0.01588,0.005 0.03164,0.0109 0.04762,0.0157 a 0.28897099,0.28897099 0 0 0 0.0022,5.3e-4 c 0.375067,0.11522 0.807435,0.10752 1.220841,-0.15499 a 0.28897099,0.28897099 0 0 0 0.07324,-0.0683 c 0.162686,0.11938 0.318345,0.24527 0.494924,0.3405 0.357232,0.19261 0.799092,0.27618 1.269011,0.0791 a 0.28897099,0.28897099 0 0 0 0.08463,-0.0548 c 0.140868,0.1444 0.272999,0.29383 0.432281,0.41667 0.322013,0.24829 0.746684,0.4025 1.243437,0.28084 a 0.28897099,0.28897099 0 0 0 0.09382,-0.0419 c 0.117998,0.16569 0.22601,0.33517 0.366253,0.48195 0.282436,0.29563 0.682015,0.51255 1.193766,0.46502 a 0.28897099,0.28897099 0 0 0 0.100829,-0.0292 c 0.09361,0.18263 0.17625,0.36787 0.295156,0.53462 0.2386,0.33459 0.604525,0.6071 1.119638,0.63205 a 0.28897099,0.28897099 0 0 0 0.106086,-0.0149 c 0.06744,0.19464 0.12323,0.39016 0.218215,0.57226 0.190538,0.36526 0.516174,0.68635 1.023141,0.78217 a 0.28897099,0.28897099 0 0 0 0.106634,0 c 0.03996,0.20187 0.06832,0.40343 0.137134,0.5965 0.138196,0.38762 0.416286,0.74848 0.9037,0.91348 a 0.28897099,0.28897099 0 0 0 0.104444,0.0151 c 0.01117,0.20433 0.01138,0.40688 0.05189,0.60647 0.08156,0.40155 0.304375,0.79687 0.76073,1.02937 a 0.28897099,0.28897099 0 0 0 0.09897,0.0293 c -0.01872,0.202 -0.04807,0.40074 -0.03777,0.60233 0.02058,0.40686 0.179996,0.8286 0.593687,1.1268 a 0.28897099,0.28897099 0 0 0 0.09109,0.0442 c -0.0496,0.19532 -0.108275,0.38572 -0.130171,0.58503 -0.04434,0.40338 0.04379,0.84391 0.403137,1.2058 a 0.28897099,0.28897099 0 0 0 0.08101,0.057 c -0.08189,0.18518 -0.170722,0.36432 -0.226852,0.55795 -0.113334,0.39093 -0.104116,0.84171 0.189235,1.26487 a 0.28897099,0.28897099 0 0 0 0.07248,0.0726 c -0.11179,0.16705 -0.229787,0.32796 -0.316965,0.50751 -0.17738,0.36536 -0.241852,0.80993 -0.02562,1.27129 a 0.28897099,0.28897099 0 0 0 0.05758,0.0811 c -0.138644,0.14652 -0.282621,0.28475 -0.398998,0.44865 -0.235185,0.33123 -0.372166,0.76149 -0.231747,1.25265 a 0.28897099,0.28897099 0 0 0 0.04477,0.0911 c -0.160705,0.12382 -0.325209,0.23799 -0.466328,0.38318 -0.284582,0.29273 -0.486912,0.69972 -0.421004,1.20882 a 0.28897099,0.28897099 0 0 0 0.03219,0.0995 c -0.178627,0.0997 -0.360056,0.18852 -0.52201,0.31285 -0.325636,0.24995 -0.585179,0.62575 -0.592186,1.14109 a 0.28897099,0.28897099 0 0 0 0.0185,0.10444 c -0.192137,0.0741 -0.385806,0.13713 -0.56452,0.23834 -0.358393,0.20296 -0.667422,0.53921 -0.745689,1.04929 a 0.28897099,0.28897099 0 0 0 0.0044,0.1074 c -0.200633,0.047 -0.40132,0.0822 -0.592175,0.15783 -0.382807,0.15169 -0.735145,0.4423 -0.883008,0.93567 a 0.28897099,0.28897099 0 0 0 -0.01095,0.1051 c -0.204266,0.0185 -0.40723,0.0254 -0.605728,0.0731 -0.398845,0.0961 -0.785911,0.33333 -1.001707,0.79853 a 0.28897099,0.28897099 0 0 0 -0.0255,0.10085 c -0.203118,-0.0111 -0.403554,-0.0328 -0.60516,-0.0149 -0.406356,0.0362 -0.822094,0.21226 -1.104047,0.6377 a 0.28897099,0.28897099 0 0 0 -0.03985,0.0926 c -0.197436,-0.0418 -0.390547,-0.093 -0.590873,-0.10664 -0.405086,-0.0279 -0.841745,0.0795 -1.18792,0.45354 a 0.28897099,0.28897099 0 0 0 -0.05343,0.0832 c -0.187987,-0.0737 -0.370534,-0.15448 -0.565846,-0.20184 -0.386627,-0.0939 -0.826451,-0.0693 -1.227245,0.22535 a 0.28897099,0.28897099 0 0 0 -5.47e-4,0.001 c -0.0077,0.005 -0.01653,0.012 -0.02485,0.0185 a 0.28897099,0.28897099 0 0 0 -0.06909,0.0754 c -0.173076,-0.10542 -0.342014,-0.21886 -0.524649,-0.29798 -0.373183,-0.16163 -0.820024,-0.20696 -1.272028,0.0283 a 0.28897099,0.28897099 0 0 0 -0.07882,0.0611 c -0.1519,-0.13239 -0.296108,-0.27011 -0.464265,-0.37962 -0.340171,-0.22152 -0.774408,-0.34135 -1.259229,-0.18209 a 0.28897099,0.28897099 0 0 0 -0.08954,0.0483 c -0.129716,-0.1557 -0.249392,-0.31606 -0.399551,-0.45147 -0.302762,-0.273 -0.715702,-0.45893 -1.221423,-0.37454 a 0.28897099,0.28897099 0 0 0 -0.09744,0.0348 c -0.105943,-0.17461 -0.201479,-0.35184 -0.331268,-0.50903 -0.261058,-0.31615 -0.645603,-0.56207 -1.160473,-0.55098 a 0.28897099,0.28897099 0 0 0 -0.103644,0.022 c -0.08068,-0.18916 -0.149577,-0.38041 -0.256773,-0.55531 -0.215104,-0.35096 -0.562405,-0.64821 -1.07488,-0.70881 a 0.28897099,0.28897099 0 0 0 -0.106666,0.006 c -0.05384,-0.19888 -0.09631,-0.39835 -0.178515,-0.58652 -0.164902,-0.3775 -0.467526,-0.71892 -0.96615,-0.84953 a 0.28897099,0.28897099 0 0 0 -0.105901,-0.006 c -0.02566,-0.2038 -0.04041,-0.40664 -0.09538,-0.60365 -0.110416,-0.39563 -0.361342,-0.77509 -0.834662,-0.97404 a 0.28897099,0.28897099 0 0 0 -0.101761,-0.0213 c 0.0039,-0.20391 0.01792,-0.40511 -0.0078,-0.60648 -0.05165,-0.40529 -0.243935,-0.81512 -0.680408,-1.08072 a 0.28897099,0.28897099 0 0 0 -0.09462,-0.0364 c 0.03406,-0.19929 0.0775,-0.3947 0.08315,-0.59576 0.01137,-0.40625 -0.113147,-0.83787 -0.501132,-1.16818 a 0.28897099,0.28897099 0 0 0 -0.08616,-0.0497 c 0.06561,-0.19084 0.138968,-0.37667 0.177768,-0.57373 0.07842,-0.39829 0.0285,-0.84513 -0.29929,-1.23798 a 0.28897099,0.28897099 0 0 0 -0.06601,-0.0581 c 0.01449,-0.0263 0.02751,-0.0517 0.04193,-0.0783 a 0.28897099,0.28897099 0 0 0 6.47e-4,-10e-4 c 0.08231,-0.15245 0.160346,-0.30616 0.221792,-0.46709 0.145364,-0.38073 0.170663,-0.82858 -0.08391,-1.27052 a 0.28897099,0.28897099 0 0 0 -0.06468,-0.0761 c 0.126045,-0.15739 0.25791,-0.3074 0.360423,-0.47989 0.207333,-0.34885 0.309673,-0.78694 0.131488,-1.2647 a 0.28897099,0.28897099 0 0 0 -0.05191,-0.0875 c 0.150126,-0.13529 0.305353,-0.26117 0.434547,-0.41591 0.260921,-0.31252 0.431418,-0.73204 0.328444,-1.23366 a 0.28897099,0.28897099 0 0 0 -0.03916,-0.0953 c 0.170446,-0.1121 0.343994,-0.21392 0.496244,-0.34913 0.306148,-0.27189 0.538277,-0.66374 0.509036,-1.17741 a 0.28897099,0.28897099 0 0 0 -0.0256,-0.10237 c 0.186141,-0.0873 0.374299,-0.16334 0.54534,-0.27652 0.343041,-0.22699 0.628367,-0.58442 0.671187,-1.09858 a 0.28897099,0.28897099 0 0 0 -0.01144,-0.10587 c 0.196942,-0.0608 0.395023,-0.10959 0.580329,-0.19827 0.37164,-0.17785 0.702771,-0.49234 0.816037,-0.99549 a 0.28897099,0.28897099 0 0 0 0.0032,-0.10663 c 0.203048,-0.0328 0.405585,-0.0546 0.600833,-0.11662 0.391887,-0.12445 0.762106,-0.38875 0.944139,-0.86947 a 0.28897099,0.28897099 0 0 0 0.01865,-0.10314 c 0.204098,-0.004 0.405862,0.003 0.606289,-0.03 0.403687,-0.0668 0.80603,-0.27484 1.055131,-0.7216 a 0.28897099,0.28897099 0 0 0 0.03273,-0.0967 c 0.200977,0.0264 0.398429,0.0628 0.600079,0.0605 0.406835,-0.004 0.833921,-0.14754 1.148244,-0.54874 a 0.28897099,0.28897099 0 0 0 0.04683,-0.0882 c 0.193138,0.0576 0.381349,0.12396 0.579582,0.15425 0.401126,0.0613 0.845481,-0.008 1.222923,-0.35196 a 0.28897099,0.28897099 0 0 0 0.05967,-0.0788 z m 5.278464,0.073 c 0.172606,-0.003 0.33064,0.0294 0.474233,0.0877 0.01183,0.004 0.02343,0.0101 0.03514,0.0149 h 1.97e-4 c 0.363188,0.16107 0.62838,0.4853 0.848577,0.83787 0.147765,0.23659 0.27544,0.48568 0.40802,0.71106 -0.430639,0.04 -0.710173,-0.1177 -0.958068,-0.37717 -0.253325,-0.26515 -0.470795,-0.63487 -0.736086,-0.97197 -0.07883,-0.10004 -0.161319,-0.19695 -0.249439,-0.28706 0.06076,-0.009 0.119858,-0.0143 0.17739,-0.0152 z m -10.190857,0.66686 c 0.05178,2.9e-4 0.103722,10e-4 0.155572,0.004 0.278461,0.012 0.555256,0.0472 0.814713,0.0655 -0.209753,0.3762 -0.495689,0.5182 -0.849894,0.57675 -0.3617,0.0597 -0.790559,0.0309 -1.220477,0.0579 -0.127659,0.008 -0.254993,0.021 -0.379801,0.0421 0.108265,-0.22188 0.257711,-0.38297 0.430776,-0.49662 0.01073,-0.006 0.02164,-0.0136 0.03234,-0.0204 0.296715,-0.18182 0.654155,-0.23142 1.016754,-0.22912 z m 11.820111,0.21501 c 0.246636,-5.4e-4 0.457012,0.0624 0.635442,0.16762 0.01094,0.006 0.02179,0.0134 0.03273,0.0199 v 1.9e-4 c 0.336431,0.21271 0.552577,0.57269 0.720846,0.95429 0.112929,0.25609 0.20452,0.52142 0.304562,0.76393 -0.433517,-0.0211 -0.689415,-0.21767 -0.898806,-0.51129 -0.213978,-0.30004 -0.376479,-0.69902 -0.589931,-1.07281 -0.06339,-0.11099 -0.130949,-0.21938 -0.204848,-0.32186 z m -12.548112,0.747 c -0.153257,0.40472 -0.417695,0.5878 -0.761484,0.69696 -0.351163,0.11151 -0.781564,0.14364 -1.20449,0.23101 -0.125575,0.0259 -0.250106,0.0566 -0.370959,0.0951 0.07628,-0.23536 0.201836,-0.4162 0.357419,-0.55342 0.0096,-0.009 0.01944,-0.0166 0.02916,-0.0251 0.306927,-0.25414 0.716971,-0.3484 1.131497,-0.39071 0.278248,-0.0283 0.558291,-0.0336 0.81886,-0.0538 z m 14.214787,0.37548 c 0.244906,0.0344 0.44452,0.12675 0.606671,0.25621 0.0098,0.008 0.01982,0.0164 0.02967,0.0245 0.303621,0.25834 0.46761,0.64562 0.581458,1.04741 0.07642,0.26964 0.130522,0.54562 0.196199,0.79966 -0.426753,-0.0807 -0.653747,-0.31102 -0.820923,-0.63149 -0.17081,-0.32746 -0.276644,-0.74633 -0.435674,-1.14768 -0.04719,-0.11917 -0.09875,-0.23631 -0.157443,-0.34857 z m -15.774814,0.75602 c -0.09535,0.42358 -0.333099,0.64251 -0.659148,0.79855 -0.333127,0.15943 -0.755557,0.25058 -1.162353,0.3956 -0.120792,0.043 -0.239715,0.0906 -0.354026,0.14541 0.04299,-0.24364 0.142031,-0.44006 0.277091,-0.59763 0.0084,-0.0101 0.0172,-0.019 0.0256,-0.0288 0.268804,-0.29447 0.66173,-0.44491 1.067167,-0.54476 0.272106,-0.067 0.549633,-0.11155 0.805686,-0.16837 z m 17.270514,0.59124 c 0.237932,0.0682 0.42303,0.18731 0.565649,0.33804 0.0088,0.0101 0.01719,0.0188 0.02595,0.0283 v 1.8e-4 c 0.264799,0.29797 0.37349,0.70432 0.430409,1.11741 0.0382,0.27725 0.05342,0.55738 0.08299,0.81734 -0.410341,-0.1389 -0.603003,-0.39718 -0.724253,-0.73721 -0.123832,-0.34736 -0.170919,-0.77667 -0.272943,-1.19639 -0.03021,-0.12465 -0.06514,-0.24813 -0.107728,-0.36759 z m -18.661798,0.74871 c -0.03606,0.43271 -0.241503,0.68193 -0.542517,0.88112 -0.307603,0.20353 -0.71254,0.35202 -1.094068,0.5521 -0.1133,0.0593 -0.224212,0.123 -0.329383,0.1932 0.0083,-0.2467 0.07885,-0.45477 0.190369,-0.62943 0.0069,-0.0109 0.01429,-0.0213 0.02123,-0.032 0.22468,-0.32879 0.592385,-0.53227 0.97988,-0.68718 0.260028,-0.1039 0.528528,-0.18622 0.77446,-0.27785 z m 19.955826,0.79269 c 0.225736,0.10044 0.392014,0.24412 0.511861,0.41311 0.0077,0.0109 0.01434,0.0212 0.02168,0.0316 0.219956,0.33161 0.270163,0.74868 0.267699,1.16422 -0.0011,0.27897 -0.0266,0.5573 -0.03514,0.81755 -0.38423,-0.19577 -0.536987,-0.47692 -0.608532,-0.82921 -0.07314,-0.35977 -0.05956,-0.78994 -0.101926,-1.21897 -0.01259,-0.12739 -0.02989,-0.25423 -0.05551,-0.3783 z m -21.147148,0.72443 c 0.0246,0.43225 -0.143282,0.70647 -0.411968,0.94507 -0.274578,0.24386 -0.652496,0.44761 -0.99963,0.70017 -0.103087,0.075 -0.203015,0.15407 -0.296471,0.23871 -0.02772,-0.24452 0.01178,-0.46029 0.0967,-0.64879 0.0053,-0.0117 0.01105,-0.0232 0.0164,-0.0348 0.174541,-0.35708 0.508427,-0.61028 0.869082,-0.81773 0.242031,-0.13921 0.495735,-0.25802 0.725932,-0.38264 z m 22.208487,0.98007 c 0.208319,0.13138 0.351814,0.29739 0.445637,0.48158 0.0055,0.0113 0.01117,0.0228 0.01697,0.0342 h -1.86e-4 c 0.169092,0.35935 0.157838,0.77851 0.0935,1.18774 -0.04325,0.27474 -0.109874,0.5451 -0.158198,0.80005 -0.348473,-0.25117 -0.456125,-0.54989 -0.474244,-0.90709 -0.0185,-0.36469 0.05758,-0.78623 0.07729,-1.2154 0.0055,-0.12742 0.0066,-0.25502 -5.37e-4,-0.38111 z m -23.168989,0.6838 c 0.08666,0.42217 -0.03843,0.71567 -0.267502,0.99003 -0.234066,0.28036 -0.575263,0.53764 -0.878864,0.84012 -0.09016,0.0898 -0.176689,0.1831 -0.255834,0.28123 -0.06508,-0.23712 -0.05893,-0.4565 -0.0039,-0.65558 0.0039,-0.0122 0.0075,-0.0244 0.01094,-0.0367 h 1.92e-4 c 0.118353,-0.37926 0.41022,-0.67935 0.735146,-0.93681 0.218099,-0.1728 0.450864,-0.32654 0.659719,-0.48232 z m 23.966954,1.15313 c 0.18571,0.16101 0.302262,0.34673 0.366823,0.54308 0.0032,0.0122 0.0077,0.0243 0.01139,0.0365 0.112183,0.38118 0.03624,0.79377 -0.09252,1.18794 -0.08638,0.26457 -0.196122,0.52083 -0.286114,0.76486 -0.302996,-0.30513 -0.360177,-0.61596 -0.321115,-0.97066 0.03985,-0.36213 0.180598,-0.76569 0.265051,-1.18586 0.02507,-0.12478 0.04521,-0.25035 0.0566,-0.37586 z m -24.665987,0.62623 c 0.15012,0.40249 0.07361,0.70971 -0.108538,1.01619 -0.186062,0.31306 -0.481588,0.6218 -0.732515,0.9716 -0.07452,0.10389 -0.144882,0.211 -0.207114,0.32167 -0.103765,-0.22447 -0.133122,-0.44333 -0.110423,-0.64974 0.0013,-0.0129 0.0032,-0.0255 0.0046,-0.0382 0.05616,-0.39532 0.297589,-0.73939 0.577882,-1.04422 0.188232,-0.20472 0.393923,-0.3922 0.575819,-0.57732 z m 25.169571,1.3119 c 0.157881,0.18931 0.243341,0.39268 0.275396,0.5982 0.0011,0.0127 0.0032,0.0253 0.0055,0.038 0.04916,0.39716 -0.09459,0.79444 -0.290263,1.1648 -0.131288,0.24847 -0.285446,0.4847 -0.418924,0.71218 -0.247873,-0.35752 -0.248934,-0.67553 -0.148991,-1.02031 0.102036,-0.35206 0.309116,-0.72794 0.460877,-1.13 0.045,-0.11939 0.08506,-0.24051 0.116442,-0.36287 z m -25.576273,0.55229 c 0.214998,0.37326 0.19222,0.68877 0.06436,1.02373 -0.05391,0.14116 -0.126429,0.28478 -0.206361,0.43285 -0.115787,0.21284 -0.24125,0.42662 -0.351957,0.65802 -0.05537,0.11568 -0.105845,0.23345 -0.147481,0.35327 -0.142005,-0.20295 -0.210396,-0.41406 -0.224986,-0.62303 -6.47e-4,-0.013 -0.0013,-0.0259 -0.0019,-0.0388 h 1.91e-4 c -0.0046,-0.11747 0.0077,-0.23431 0.03293,-0.34951 0.06323,-0.27823 0.200771,-0.54181 0.361368,-0.78932 0.152442,-0.23496 0.324919,-0.45462 0.474232,-0.66725 z m 25.754605,1.45659 c 0.123613,0.21619 0.171741,0.43338 0.166486,0.64222 -3.95e-4,0.0129 -0.0011,0.0256 -0.0011,0.0386 -0.02277,0.40102 -0.235951,0.76596 -0.4906,1.0935 -0.171072,0.22006 -0.360779,0.42393 -0.52709,0.62304 -0.182382,-0.38907 -0.132043,-0.70124 0.02387,-1.0224 0.15926,-0.32798 0.428011,-0.66174 0.649193,-1.03425 0.06568,-0.1106 0.126831,-0.22408 0.179644,-0.34067 z m -25.840384,0.45975 c 0.276629,0.33152 0.306439,0.64669 0.2374,0.99737 -0.07049,0.35802 -0.244146,0.74878 -0.361931,1.16103 -0.03499,0.12242 -0.06489,0.24613 -0.08615,0.3704 -0.17245,-0.17532 -0.274082,-0.36998 -0.322802,-0.57131 -0.0026,-0.0123 -0.0053,-0.025 -0.0084,-0.0375 -0.08145,-0.38992 0.02812,-0.79594 0.189992,-1.17929 0.108647,-0.25727 0.240455,-0.50432 0.351962,-0.74079 z m 25.662052,1.54911 c 0.0843,0.23145 0.09546,0.45092 0.05605,0.65406 -0.0022,0.0126 -0.0055,0.0252 -0.0077,0.0377 -0.08802,0.38806 -0.355612,0.71045 -0.659342,0.99192 -0.203905,0.18897 -0.423948,0.3598 -0.620015,0.53047 -0.118216,-0.41353 -0.01675,-0.71458 0.189805,-1.00546 0.211,-0.29719 0.530472,-0.58043 0.80889,-0.90689 0.08265,-0.0969 0.161493,-0.1972 0.232502,-0.30173 z m -25.420326,0.34706 c 0.326936,0.27835 0.40993,0.58389 0.399929,0.94075 -0.01029,0.36435 -0.118299,0.77793 -0.170056,1.20376 -0.01535,0.12642 -0.02586,0.25347 -0.02764,0.37959 -0.197677,-0.14634 -0.328233,-0.3225 -0.407826,-0.51317 -0.0046,-0.0118 -0.0093,-0.0238 -0.01409,-0.0355 -0.141402,-0.371 -0.09815,-0.78775 -0.0019,-1.19056 0.06463,-0.2704 0.152661,-0.53461 0.221599,-0.78481 z m 24.916742,1.59107 c 0.0462,0.24148 0.02288,0.4595 -0.04762,0.6537 -0.0044,0.0119 -0.0087,0.024 -0.01358,0.0359 -0.147205,0.36892 -0.461226,0.6459 -0.805135,0.87868 -0.230793,0.15621 -0.474659,0.29261 -0.694878,0.43304 -0.05551,-0.42842 0.09163,-0.71297 0.341424,-0.96992 0.255263,-0.26257 0.615943,-0.49324 0.942444,-0.77107 0.097,-0.0825 0.190659,-0.16884 0.277279,-0.26035 z m -24.366507,0.23645 c 0.36756,0.22365 0.498334,0.51437 0.543647,0.87003 0.0463,0.36316 0.0013,0.79023 0.01336,1.22048 0.0032,0.12774 0.0117,0.25515 0.02838,0.38055 -0.217691,-0.11604 -0.373016,-0.27113 -0.480258,-0.44808 -0.0066,-0.011 -0.01283,-0.0223 -0.01938,-0.033 -0.195275,-0.34621 -0.214992,-0.76541 -0.1819,-1.1789 0.02222,-0.2776 0.06793,-0.55265 0.09612,-0.81096 z m 23.568542,1.60047 c 0.0098,0.24627 -0.04587,0.45874 -0.14448,0.64073 -0.0055,0.0111 -0.01259,0.0221 -0.01883,0.0334 -0.20037,0.34368 -0.552205,0.57246 -0.927392,0.75396 -0.251781,0.12177 -0.5137,0.22253 -0.752454,0.33088 0.0055,-0.4337 0.193353,-0.69619 0.479127,-0.91554 0.292026,-0.22417 0.684566,-0.40053 1.050042,-0.62718 0.108494,-0.0673 0.214317,-0.1386 0.313955,-0.21614 z m -22.740659,0.12754 c 0.398507,0.16752 0.571882,0.43812 0.668747,0.78519 0.09894,0.35449 0.115739,0.78535 0.188297,1.21088 0.02156,0.12636 0.04782,0.25171 0.08202,0.37379 -0.232492,-0.0845 -0.408626,-0.216 -0.540267,-0.37622 -0.0081,-0.0101 -0.01581,-0.0202 -0.02388,-0.0301 -0.243122,-0.31553 -0.322907,-0.72851 -0.350449,-1.14392 -0.01851,-0.27885 -0.01368,-0.55879 -0.02447,-0.81961 z m 21.67932,1.57696 c -0.02584,0.24582 -0.1111,0.4486 -0.234769,0.61514 -0.0077,0.0101 -0.01554,0.0202 -0.02332,0.0305 -0.24749,0.31238 -0.628961,0.4897 -1.026537,0.61739 -0.266802,0.0858 -0.540446,0.14923 -0.79214,0.22366 0.06591,-0.42935 0.288097,-0.66411 0.602522,-0.84217 0.321301,-0.18196 0.736207,-0.30192 1.131504,-0.4748 0.117396,-0.0513 0.232678,-0.10708 0.342749,-0.16968 z m -20.604626,0.0206 c 0.419752,0.10995 0.630167,0.35488 0.774837,0.68605 0.147806,0.33834 0.224496,0.76365 0.355344,1.17533 0.03883,0.12225 0.0822,0.24292 0.132997,0.35911 -0.242064,-0.0514 -0.435064,-0.1575 -0.58785,-0.29798 -0.0094,-0.009 -0.01846,-0.0176 -0.02784,-0.0262 v -2.1e-4 c -0.284955,-0.27888 -0.421643,-0.67688 -0.507342,-1.08541 -0.05754,-0.27419 -0.09232,-0.55287 -0.140146,-0.81057 z m 1.290646,1.43624 c 0.43134,0.051 0.673576,0.26523 0.862309,0.57319 0.192874,0.31468 0.327181,0.72472 0.513738,1.11343 0.05543,0.11542 0.115092,0.22866 0.181532,0.33636 -0.24643,-0.0172 -0.452149,-0.0951 -0.622846,-0.21277 -0.01051,-0.008 -0.02077,-0.015 -0.03122,-0.0225 -0.320778,-0.23628 -0.511192,-0.61096 -0.652562,-1.00377 -0.09487,-0.26361 -0.167853,-0.53508 -0.250946,-0.78406 z m 18.019952,0.0843 c -0.05978,0.24017 -0.172397,0.42934 -0.318104,0.57714 -0.0087,0.009 -0.0185,0.0181 -0.02748,0.0271 -0.28861,0.27506 -0.691253,0.39776 -1.102339,0.46915 -0.275922,0.048 -0.555533,0.073 -0.814539,0.11175 0.124478,-0.41535 0.376368,-0.61713 0.712208,-0.7502 0.343087,-0.13593 0.770616,-0.19782 1.186618,-0.31433 0.123525,-0.0346 0.245704,-0.0739 0.363626,-0.1206 z m -16.544203,1.15992 c 0.433277,-0.0101 0.701684,0.16856 0.930785,0.44602 0.234126,0.28353 0.424348,0.66919 0.664036,1.02577 0.07117,0.10587 0.146311,0.20869 0.227434,0.30531 -0.245556,0.0187 -0.459695,-0.0291 -0.645043,-0.12076 -0.01144,-0.005 -0.02262,-0.0118 -0.03406,-0.0175 -0.350568,-0.18762 -0.591758,-0.53078 -0.786312,-0.89899 -0.130557,-0.24708 -0.240318,-0.5052 -0.356852,-0.73984 z m 15.048317,0.18755 c -0.0924,0.22928 -0.230138,0.40068 -0.394838,0.52653 -0.0098,0.008 -0.0207,0.0151 -0.03076,0.0228 -0.323764,0.23172 -0.739065,0.29683 -1.154835,0.30944 -0.279086,0.009 -0.558325,-0.006 -0.819039,-0.005 0.18168,-0.39167 0.457657,-0.55487 0.807565,-0.6392 0.357374,-0.0862 0.788221,-0.0878 1.215783,-0.14542 0.126953,-0.0171 0.253072,-0.039 0.376226,-0.0688 z m -13.264815,0.81659 c 0.344107,-0.0183 0.594582,0.11217 0.827135,0.32187 0.271583,0.2449 0.515637,0.59645 0.805877,0.91179 0.08619,0.0936 0.176022,0.18358 0.270882,0.26656 -0.239458,0.0556 -0.458273,0.0408 -0.655009,-0.0223 -0.01216,-0.003 -0.02421,-0.009 -0.03631,-0.0122 -0.374286,-0.13297 -0.662834,-0.43601 -0.908025,-0.77069 -0.16456,-0.22463 -0.309891,-0.46326 -0.458054,-0.67797 0.05318,-0.009 0.104345,-0.0146 0.1535,-0.0172 z m 10.28191,0.27936 c 0.293198,0.003 0.612801,0.0382 0.935285,0.0412 0.127686,0.001 0.255306,-0.002 0.381131,-0.0147 -0.123766,0.21317 -0.284351,0.36269 -0.465014,0.46333 -0.01117,0.005 -0.02255,0.0119 -0.03372,0.018 0,0 -1.85e-4,0 -1.85e-4,0 -0.35294,0.18231 -0.772401,0.18672 -1.183979,0.13809 -0.276348,-0.0327 -0.549084,-0.0888 -0.80588,-0.12699 0.237451,-0.3583 0.53217,-0.47776 0.888833,-0.50959 0.09109,-0.008 0.185754,-0.0109 0.283487,-0.0101 z m -8.261383,0.44225 c 0.215124,0.0109 0.404116,0.0907 0.590866,0.21238 0.305235,0.19877 0.601408,0.50649 0.93962,0.77146 0.100393,0.0787 0.20407,0.15338 0.3117,0.22009 -0.228112,0.094 -0.447507,0.11409 -0.652372,0.083 -0.0127,-10e-4 -0.02539,-0.004 -0.03797,-0.005 -0.391873,-0.0723 -0.725205,-0.32718 -1.018441,-0.61947 -0.196895,-0.19624 -0.376046,-0.40922 -0.553998,-0.59838 0.153116,-0.0503 0.291549,-0.0691 0.420623,-0.0629 z m 6.066097,0.18717 c 0.04313,-2e-4 0.08681,10e-4 0.131299,0.004 0.363462,0.025 0.772368,0.14925 1.19565,0.21729 0.125682,0.0203 0.252208,0.0353 0.37811,0.0419 -0.153721,0.19185 -0.334811,0.31552 -0.528416,0.38771 -0.01193,0.004 -0.02398,0.009 -0.0359,0.0129 -0.376282,0.12699 -0.79144,0.0674 -1.190197,-0.0448 -0.267668,-0.0754 -0.527923,-0.17436 -0.775215,-0.25376 0.255307,-0.27586 0.523181,-0.36412 0.824688,-0.36552 z m -4.108969,0.22066 c 0.167197,0.002 0.327651,0.0468 0.491739,0.11775 0.284735,0.12333 0.585333,0.33163 0.9052,0.51638 0.05255,0.0303 0.105647,0.0599 0.159336,0.0886 0.113575,0.0605 0.229514,0.11621 0.347817,0.16309 -0.167361,0.10664 -0.338149,0.1662 -0.507153,0.18867 -0.0427,0.005 -0.08517,0.009 -0.127544,0.009 -0.01292,2e-4 -0.02594,-1e-4 -0.03897,0 -0.40329,-0.005 -0.778367,-0.20369 -1.117021,-0.4447 -0.227553,-0.16194 -0.439309,-0.34315 -0.645223,-0.50113 0.190729,-0.0993 0.364594,-0.13983 0.531791,-0.1377 z m 2.011317,0.0655 c 0.122299,-0.003 0.245847,0.0144 0.373588,0.0454 0.355272,0.0862 0.738922,0.27634 1.146361,0.41103 0.120998,0.0401 0.243615,0.0751 0.367009,0.10138 -0.18236,0.16533 -0.381514,0.259 -0.585026,0.29948 -0.01259,0.002 -0.02529,0.004 -0.03777,0.006 -0.393722,0.0655 -0.795579,-0.0609 -1.172703,-0.23967 -0.249416,-0.11818 -0.476532,-0.25231 -0.705804,-0.37415 -0.0077,-0.003 -0.01412,-0.008 -0.02124,-0.0112 0.0077,-0.005 0.01412,-0.0109 0.02124,-0.016 0.210146,-0.15449 0.410537,-0.21769 0.614377,-0.2231 z"
       style="color:#000000;font-style:normal;font-variant:normal;font-weight:normal;font-stretch:normal;font-size:medium;line-height:normal;font-family:sans-serif;font-variant-ligatures:normal;font-variant-position:normal;font-variant-caps:normal;font-variant-numeric:normal;font-variant-alternates:normal;font-feature-settings:normal;text-indent:0;text-align:start;text-decoration:none;text-decoration-line:none;text-decoration-style:solid;text-decoration-color:#000000;letter-spacing:normal;word-spacing:normal;text-transform:none;writing-mode:lr-tb;direction:ltr;text-orientation:mixed;dominant-baseline:auto;baseline-shift:baseline;text-anchor:start;white-space:normal;shape-padding:0;clip-rule:nonzero;display:inline;overflow:visible;visibility:visible;opacity:1;isolation:auto;mix-blend-mode:normal;color-interpolation:sRGB;color-interpolation-filters:linearRGB;solid-color:#000000;solid-opacity:1;vector-effect:none;fill:#000000;fill-opacity:1;fill-rule:nonzero;stroke:none;stroke-width:1.58750021;stroke-linecap:round;stroke-linejoin:round;stroke-miterlimit:4;stroke-dasharray:none;stroke-dashoffset:0;stroke-opacity:1;color-rendering:auto;image-rendering:auto;shape-rendering:auto;text-rendering:auto;enable-background:accumulate" />
    <g
       transform="matrix(2.6631595,0,0,2.6631595,-25.764322,-442.38772)"
       id="text852"
       style="font-style:normal;font-variant:normal;font-weight:normal;font-stretch:normal;font-size:7.26761341px;line-height:1.25;font-family:'Phenix American';-inkscape-font-specification:'Phenix American';letter-spacing:0px;word-spacing:0px;fill:#a85c3a;fill-opacity:1;stroke:none;stroke-width:0.09934941"
       aria-label="BEGNATS">
      <g
         aria-label="LOGO"
         style="font-style:normal;font-weight:normal;font-size:3.97397637px;line-height:1.25;font-family:sans-serif;letter-spacing:0px;word-spacing:0px;fill:#000000;fill-opacity:1;stroke:none;stroke-width:0.00987031"
         id="text850">
        <path
           d="m 16.688851,269.50864 v -3.60142 h 0.302706 v 3.58201 h 0.426892 v 0.0194 z"
           style="font-style:normal;font-variant:normal;font-weight:bold;font-stretch:normal;font-family:Caledo;-inkscape-font-specification:'Caledo Bold';stroke-width:0.00987031"
           id="path873" />
        <path
           d="m 17.79683,268.59082 q -0.06791,-0.3745 -0.06791,-0.89065 0,-0.51615 0.06791,-0.89066 0.06791,-0.3745 0.182399,-0.56854 0.114485,-0.19404 0.236731,-0.27942 0.122247,-0.0854 0.254195,-0.0854 0.104783,0 0.201804,0.0485 0.09702,0.0485 0.195982,0.17852 0.09896,0.13001 0.172697,0.32793 0.07374,0.19793 0.120306,0.52586 0.04657,0.32793 0.04657,0.74318 0,0.41525 -0.04657,0.74318 -0.04657,0.32793 -0.120306,0.52585 -0.07374,0.19792 -0.172697,0.32599 -0.09896,0.12807 -0.195982,0.17658 -0.09702,0.0485 -0.201804,0.0485 -0.131948,0 -0.254195,-0.0854 -0.122246,-0.0854 -0.236731,-0.27748 -0.114484,-0.1921 -0.182399,-0.5666 z m 0.238671,-0.81692 q 0,0.85767 0.114485,1.29232 0.114485,0.43465 0.320169,0.43465 0.41913,0 0.41913,-1.72697 v -0.0737 -0.0776 q 0,-1.73085 -0.41913,-1.73085 -0.205684,0 -0.320169,0.43659 -0.114485,0.4366 -0.114485,1.29426 v 0.0776 z"
           style="font-style:normal;font-variant:normal;font-weight:bold;font-stretch:normal;font-family:Caledo;-inkscape-font-specification:'Caledo Bold';stroke-width:0.00987031"
           id="path875" />
        <path
           d="m 19.448126,267.97959 v -0.54332 q 0,-0.18628 0.0019,-0.30076 0.0019,-0.11449 0.0097,-0.27748 0.0078,-0.163 0.02717,-0.2639 0.0194,-0.1009 0.04851,-0.22509 0.02911,-0.12419 0.07762,-0.19792 0.04851,-0.0737 0.116425,-0.13971 0.06791,-0.066 0.161054,-0.097 0.09314,-0.031 0.209565,-0.031 0.345395,0 0.494807,0.20374 0.149412,0.20375 0.149412,0.63452 v 0.13971 h -0.298824 v -0.0737 q 0,-0.37644 -0.03687,-0.5666 -0.03687,-0.19016 -0.104783,-0.25419 -0.06791,-0.064 -0.203744,-0.064 -0.217326,0 -0.294943,0.27554 -0.06015,0.19599 -0.06015,0.71796 0,0.0873 0.0019,0.1824 v 1.21858 q -0.0019,0.0951 -0.0019,0.1824 0,0.52197 0.06015,0.71795 0.0815,0.2833 0.294943,0.2833 0.0815,0 0.139711,-0.0349 0.05821,-0.0349 0.106723,-0.13001 0.04851,-0.0951 0.07373,-0.28136 0.02523,-0.18628 0.02523,-0.4657 v -0.95857 h -0.36868 v -0.0155 h 0.667504 v 1.05947 q 0,0.43077 -0.149412,0.63645 -0.149412,0.20569 -0.494807,0.20569 -0.131948,0 -0.23479,-0.0466 -0.102842,-0.0466 -0.172697,-0.11255 -0.06986,-0.066 -0.116425,-0.1921 -0.04657,-0.12612 -0.0718,-0.23673 -0.02522,-0.1106 -0.03881,-0.293 -0.01358,-0.1824 -0.01552,-0.31047 -0.0019,-0.12807 -0.0019,-0.34539 z"
           style="font-style:normal;font-variant:normal;font-weight:bold;font-stretch:normal;font-family:Caledo;-inkscape-font-specification:'Caledo Bold';stroke-width:0.00987031"
           id="path877" />
        <path
           d="m 21.118826,268.59082 q -0.06791,-0.3745 -0.06791,-0.89065 0,-0.51615 0.06791,-0.89066 0.06792,-0.3745 0.182399,-0.56854 0.114485,-0.19404 0.236731,-0.27942 0.122247,-0.0854 0.254195,-0.0854 0.104783,0 0.201803,0.0485 0.09702,0.0485 0.195983,0.17852 0.09896,0.13001 0.172697,0.32793 0.07374,0.19793 0.120306,0.52586 0.04657,0.32793 0.04657,0.74318 0,0.41525 -0.04657,0.74318 -0.04657,0.32793 -0.120306,0.52585 -0.07374,0.19792 -0.172697,0.32599 -0.09896,0.12807 -0.195983,0.17658 -0.09702,0.0485 -0.201803,0.0485 -0.131948,0 -0.254195,-0.0854 -0.122246,-0.0854 -0.236731,-0.27748 -0.114484,-0.1921 -0.182399,-0.5666 z m 0.238671,-0.81692 q 0,0.85767 0.114485,1.29232 0.114485,0.43465 0.320169,0.43465 0.41913,0 0.41913,-1.72697 v -0.0737 -0.0776 q 0,-1.73085 -0.41913,-1.73085 -0.205684,0 -0.320169,0.43659 -0.114485,0.4366 -0.114485,1.29426 v 0.0776 z"
           style="font-style:normal;font-variant:normal;font-weight:bold;font-stretch:normal;font-family:Caledo;-inkscape-font-specification:'Caledo Bold';stroke-width:0.00987031"
           id="path879" />
      </g>
    </g>
  </g>
</svg>
